<?xml version='1.0' encoding='UTF-8'?>
<svg xmlns="http://www.w3.org/2000/svg" xmlns:ns1="http://sodipodi.sourceforge.net/DTD/sodipodi-0.dtd" xmlns:ns2="http://www.inkscape.org/namespaces/inkscape" xmlns:xlink="http://www.w3.org/1999/xlink" version="1.1" width="16" height="16" id="svg3508" ns1:docname="com.github.image-optimizer.svg">
  <ns1:namedview pagecolor="#ffffff" bordercolor="#666666" borderopacity="1" objecttolerance="10" gridtolerance="10" guidetolerance="10" id="namedview132" showgrid="true">
    <ns2:grid type="xygrid" id="grid4529" />
  </ns1:namedview>
  <defs id="defs3510">
    <linearGradient x1="-89.343224" y1="42.908688" x2="-89.343224" y2="-21.07375" id="linearGradient6554" xlink:href="#linearGradient3590" gradientUnits="userSpaceOnUse" gradientTransform="matrix(0.0657842,0,0,0.06827881,16.561056,6.4975778)" />
    <linearGradient x1="23.99999" y1="5.5641499" x2="23.99999" y2="43" id="linearGradient3174-3" xlink:href="#linearGradient3977-7-7" gradientUnits="userSpaceOnUse" gradientTransform="matrix(0.29729729,0,0,0.24324323,0.86615638,3.1621588)" />
    <linearGradient id="linearGradient3977-7-7">
      <stop id="stop3979-6-6" style="stop-color:#ffffff;stop-opacity:1" offset="0" />
      <stop id="stop3981-3-44" style="stop-color:#ffffff;stop-opacity:0.23529412" offset="0.03626217" />
      <stop id="stop3983-8-5" style="stop-color:#ffffff;stop-opacity:0.15686275" offset="0.95056331" />
      <stop id="stop3985-2-08" style="stop-color:#ffffff;stop-opacity:0.39215687" offset="1" />
    </linearGradient>
    <linearGradient x1="25.132275" y1="0.98520643" x2="25.132275" y2="47.013336" id="linearGradient3182-5" xlink:href="#linearGradient3600-9-29" gradientUnits="userSpaceOnUse" gradientTransform="matrix(0.34285637,0,0,0.2172834,-0.22726362,3.4518588)" />
    <linearGradient id="linearGradient3600-9-29">
      <stop id="stop3602-0-00" style="stop-color:#f4f4f4;stop-opacity:1" offset="0" />
      <stop id="stop3604-9-14" style="stop-color:#dbdbdb;stop-opacity:1" offset="1" />
    </linearGradient>
    <linearGradient x1="-76.834877" y1="6.6805849" x2="-76.844345" y2="52.887863" id="linearGradient3185-6" xlink:href="#linearGradient4623-7-4" gradientUnits="userSpaceOnUse" gradientTransform="matrix(0.31606802,1.8694201e-4,6.4779015e-5,0.23894327,38.785246,1.9477188)" />
    <linearGradient id="linearGradient4623-7-4">
      <stop id="stop4625-3-72" style="stop-color:#000000;stop-opacity:0.27058825" offset="0" />
      <stop id="stop4627-1-421" style="stop-color:#000000;stop-opacity:0.368" offset="1" />
    </linearGradient>
    <linearGradient x1="-76.834877" y1="6.6805849" x2="-76.844345" y2="52.887863" id="linearGradient4054-9" xlink:href="#linearGradient4623-7-6-0" gradientUnits="userSpaceOnUse" gradientTransform="matrix(0.24496124,0.14162168,-0.10690434,0.18527973,35.024541,15.985397)" />
    <linearGradient id="linearGradient4623-7-6-0">
      <stop id="stop4625-3-2-8" style="stop-color:#000000;stop-opacity:0.27058825" offset="0" />
      <stop id="stop4627-1-97-2" style="stop-color:#000000;stop-opacity:0.368" offset="1" />
    </linearGradient>
    <linearGradient x1="25.132275" y1="0.98520643" x2="25.132275" y2="47.013336" id="linearGradient4056-1" xlink:href="#linearGradient3600-9-2-4" gradientUnits="userSpaceOnUse" gradientTransform="matrix(0.2658137,0.15346761,-0.09725928,0.16845802,4.1051874,-0.31103574)" />
    <linearGradient id="linearGradient3600-9-2-4">
      <stop id="stop3602-0-80-8" style="stop-color:#f4f4f4;stop-opacity:1" offset="0" />
      <stop id="stop3604-9-1-5" style="stop-color:#dbdbdb;stop-opacity:1" offset="1" />
    </linearGradient>
    <linearGradient id="linearGradient3977-7-1-5">
      <stop id="stop3979-6-5-4" style="stop-color:#ffffff;stop-opacity:1" offset="0" />
      <stop id="stop3981-3-4-5" style="stop-color:#ffffff;stop-opacity:0.23529412" offset="0.03626217" />
      <stop id="stop3983-8-3-2" style="stop-color:#ffffff;stop-opacity:0.15686275" offset="0.95056331" />
      <stop id="stop3985-2-1-0" style="stop-color:#ffffff;stop-opacity:0.39215687" offset="1" />
    </linearGradient>
    <linearGradient x1="23.99999" y1="5.5641499" x2="23.99999" y2="43" id="linearGradient3506" xlink:href="#linearGradient3977-7-1-5" gradientUnits="userSpaceOnUse" gradientTransform="matrix(0.23049213,0.13307469,-0.10887929,0.18858446,5.0825789,-0.04620372)" />
    <radialGradient xlink:href="#linearGradient4413" id="radialGradient4419" cx="28" cy="36" fx="28" fy="36" r="12" gradientUnits="userSpaceOnUse" gradientTransform="matrix(0.54167683,0,0,0.56547615,-52.13751,-11.167222)" />
    <linearGradient id="linearGradient4413">
      <stop style="stop-color:#ffeeaa;stop-opacity:1;" offset="0" id="stop4415" />
      <stop id="stop4421" offset="0.5" style="stop-color:#ffeeaa;stop-opacity:1" />
      <stop style="stop-color:#ffeeaa;stop-opacity:0;" offset="1" id="stop4417" />
    </linearGradient>
    <linearGradient x1="63.9995" y1="3.1001" x2="63.9995" y2="122.8994" id="linearGradient3309-3" gradientUnits="userSpaceOnUse">
      <stop id="stop3311-6" style="stop-color:#f6f6f6;stop-opacity:1" offset="0" />
      <stop id="stop3313-7" style="stop-color:#cccccc;stop-opacity:1" offset="1" />
    </linearGradient>
    <linearGradient x1="25.030451" y1="0.28819904" x2="24.795872" y2="15.37132" id="linearGradient3791" xlink:href="#linearGradient3309-3" gradientUnits="userSpaceOnUse" gradientTransform="matrix(-0.69798931,0.71382824,-0.72004316,-0.69196474,28.338351,-1.702094)" />
    <linearGradient id="linearGradient3590">
      <stop id="stop3592" style="stop-color:#687DDB;stop-opacity:1" offset="0" />
      <stop id="stop3594" style="stop-color:#220055;stop-opacity:1" offset="1" />
    </linearGradient>
    </defs>
  <g id="g4495">
    <path style="color:#000000;display:inline;overflow:visible;visibility:visible;fill:none;stroke:url(#linearGradient4054-9);stroke-width:0.99992192;stroke-linecap:butt;stroke-linejoin:round;stroke-miterlimit:4;stroke-dasharray:none;stroke-dashoffset:0;stroke-opacity:1;marker:none;enable-background:accumulate" id="rect6741-1-2-0-0" d="M 10.578814,14.847262 0.49996091,9.028234 5.4237597,0.49996433 15.502613,6.3189927 Z" />
    <path style="display:inline;fill:url(#linearGradient4056-1);fill-opacity:1;stroke:none" id="path4160-9-79" d="m 5.587611,1.1114654 c 2.131904,1.2308553 9.30321,5.3718568 9.30321,5.3718568 l -4.475858,7.7524388 c 0,0 -6.2023339,-3.580918 -9.303501,-5.3713781 C 2.6035105,6.280079 4.0955588,3.6957755 5.5876074,1.1114716 Z" />
    <path style="color:#000000;display:inline;overflow:visible;visibility:visible;fill:#687ddb;fill-opacity:1;fill-rule:nonzero;stroke:#212178;stroke-width:1;stroke-linecap:butt;stroke-linejoin:miter;stroke-miterlimit:4;stroke-dasharray:none;stroke-dashoffset:0;stroke-opacity:1;marker:none;enable-background:accumulate" id="path4160-62-0-7" d="m 6.130214,3.071489 c 1.556429,0.8986047 6.791961,3.921784 6.791961,3.921784 l -3.0498213,5.282465 c 0,0 -4.5281069,-2.6143041 -6.7921613,-3.9214565 C 4.096866,6.5933511 5.1135393,4.8324213 6.1302131,3.0714906 Z" />
    <path style="fill:none;stroke:url(#linearGradient3506);stroke-width:0.99999994;stroke-linecap:round;stroke-linejoin:miter;stroke-miterlimit:4;stroke-dasharray:none;stroke-dashoffset:0;stroke-opacity:1" id="rect6741-1-2-7" d="M 10.251124,13.624308 1.7229153,8.7005445 5.7514494,1.7229187 14.279658,6.6466824 Z" />
    <path d="m 14.501326,14.50004 -13.0000797,0 0,-11.0000812 13.0000797,0 z" id="rect6741-1-2-0-7" style="color:#000000;display:inline;overflow:visible;visibility:visible;fill:none;stroke:url(#linearGradient3185-6);stroke-width:0.99992192;stroke-linecap:butt;stroke-linejoin:round;stroke-miterlimit:4;stroke-dasharray:none;stroke-dashoffset:0;stroke-opacity:1;marker:none;enable-background:accumulate" />
    <path d="m 2.0012863,3.9999988 c 2.74981,0 11.9999897,6.2e-4 11.9999897,6.2e-4 L 14.001286,14 c 0,0 -7.9999997,0 -11.9999997,0 0,-3.33333 0,-6.6666612 0,-9.9999912 z" id="path4160-9-97" style="display:inline;fill:url(#linearGradient3182-5);fill-opacity:1;stroke:none" />
    <path d="m 13.501286,13.5 -10.9999997,0 0,-9.0000012 10.9999997,0 z" id="rect6741-1-2-2" style="fill:none;stroke:url(#linearGradient3174-3);stroke-width:1;stroke-linecap:round;stroke-linejoin:miter;stroke-miterlimit:4;stroke-dasharray:none;stroke-dashoffset:0;stroke-opacity:1" />
    <path d="m 3.0012863,4.9999988 0,8.0000012 9.9999997,0 0,-8.0000012 z" id="rect3055-2-9-6" style="color:#000000;display:inline;overflow:visible;visibility:visible;fill:url(#linearGradient6554);fill-opacity:1;fill-rule:nonzero;stroke:none;stroke-width:10;marker:none;enable-background:accumulate" />
    <g transform="matrix(0.38460814,0,0,0.36842105,21.719177,6.1142401)" id="g4523">
      <ellipse ry="6.7857141" rx="6.5001225" style="opacity:0.5;fill:url(#radialGradient4419);fill-opacity:1;stroke:none;stroke-width:1;stroke-opacity:1" id="path3611" cx="-36.970558" cy="9.1899195" />
      <ellipse ry="4.0714288" rx="3.9000735" style="opacity:1;fill:#f4eed7;fill-opacity:1;stroke:#c8c4b7;stroke-width:2.65655327;stroke-opacity:1" id="path3607" cx="-36.970558" cy="9.1899195" />
      <path style="fill:#161650;fill-opacity:1;fill-rule:evenodd;stroke:none;stroke-width:1px;stroke-linecap:butt;stroke-linejoin:miter;stroke-opacity:1" d="m -30.036574,5.1194039 c -0.0906,-0.00522 -0.178863,0.012026 -0.336426,0.050757 -2.217732,1.8619896 -4.649808,3.4019864 -7.040608,5.0632391 -0.351384,0.186069 -0.535093,0.315082 -0.772299,0.313663 -0.237205,-0.0015 -0.10996,-0.02513 -0.579752,-0.252509 -1.097011,-0.5992042 -2.236204,-1.7148209 -3.230958,-2.3733316 -0.288195,-0.1218704 -0.322269,-0.1200565 -0.579752,-0.088446 -0.257484,0.031611 -0.616253,0.2320437 -0.883383,0.3895944 -1.598168,0.9945974 -3.766661,1.4930937 -5.211025,2.3246912 l 2.45e-4,8.142857 26,0 2.45e-4,-8.142856 c -2.783302,-2.0001495 -4.558356,-3.6605851 -7.011906,-5.3468982 -0.170356,-0.047802 -0.263824,-0.075519 -0.354412,-0.080761 z" id="path3338" ns1:nodetypes="cccsccscccccccc" />
    </g>
    <path d="m 3.5012863,5.5002098 c 2.06237,0 9.0000597,4.47e-4 9.0000597,4.47e-4 L 12.501356,12.5 c 0,0 -6.0000397,0 -9.0000697,0 0,-2.333263 0,-4.6665262 0,-6.9997882 z" id="path4160-62-4" style="color:#000000;display:inline;overflow:visible;visibility:visible;opacity:0.3;fill:none;stroke:#000000;stroke-width:0.99999976;stroke-linecap:butt;stroke-linejoin:miter;stroke-miterlimit:4;stroke-dasharray:none;stroke-dashoffset:0;stroke-opacity:1;marker:none;enable-background:accumulate" />
    <path id="path4531" d="M 4.5,6 A 0.5,0.5 0 0 0 4,6.5 0.5,0.5 0 0 0 4.5,7 0.5,0.5 0 0 0 5,6.5 0.5,0.5 0 0 0 4.5,6 Z m 3,0 A 0.5,0.5 0 0 0 7,6.5 0.5,0.5 0 0 0 7.5,7 0.5,0.5 0 0 0 8,6.5 0.5,0.5 0 0 0 7.5,6 Z m 3,0 A 0.5,0.5 0 0 0 10,6.5 0.5,0.5 0 0 0 10.5,7 0.5,0.5 0 0 0 11,6.5 0.5,0.5 0 0 0 10.5,6 Z" style="opacity:0.3;fill:#ffffff;fill-opacity:1;stroke:none;stroke-width:1;stroke-opacity:1" />
    <g id="g3781" transform="matrix(0.75,0,0,0.75,0.03157185,-7.988087)">
      <g id="g3783" transform="translate(10.666667,16.000001)">
        <path style="display:block;overflow:visible;visibility:visible;fill:url(#linearGradient3791);fill-opacity:1;fill-rule:nonzero;stroke:none;stroke-width:1.33333337;stroke-linecap:butt;stroke-linejoin:round;stroke-miterlimit:4;stroke-dasharray:none;stroke-dashoffset:0;stroke-opacity:1;marker:none;enable-background:accumulate" id="path3785" d="m 9.7766521,14.196173 c 0.1733738,-0.177345 0.1692212,-0.443137 -0.00963,-0.615033 l -1.1128184,-1.312593 0,-3.2537047 1.1763692,-1.1161021 C 10.003968,7.7214133 9.9997992,7.4556023 9.8209488,7.2837058 L 8.7378021,6.1799617 C 8.5589308,6.0080655 8.2908053,6.0121998 8.1174125,6.1895273 l -1.2244445,1.1602932 -3.3062149,0 L 2.4586897,6.1102927 C 2.2798156,5.9383992 2.0116931,5.942531 1.8383011,6.1198543 L 0.78241883,7.1615042 c -0.17339007,0.1773304 -0.16922345,0.4431379 0.009687,0.6150339 l 1.18224387,1.3126067 0.062047,3.2928722 -1.21113748,1.1161 C 0.6518681,13.675448 0.53511359,13.823753 0.71402128,13.995649 l 1.29999542,1.181288 c 0.1788885,0.17188 0.4469962,0.167762 0.6203886,-0.0096 l 1.0982553,-1.189701 3.2421186,0 1.0693604,1.213596 c 0.1788882,0.171879 0.4469954,0.167763 0.6203873,-0.0096 L 9.7766521,14.196173 Z M 6.2515158,11.710244 C 5.7477213,12.099719 4.8801858,12.260845 4.27177,11.649099 3.6633537,11.037354 3.8361327,10.249789 4.2716295,9.7456814 4.7071266,9.2415733 5.6887876,9.0537263 6.3185715,9.5595783 6.9483555,10.065431 6.7553107,11.320769 6.2515158,11.710244 Z" />
        <path d="m 9.7766521,14.196173 c 0.1733738,-0.177345 0.1692212,-0.443137 -0.00963,-0.615033 l -1.1128184,-1.312593 0,-3.2537047 1.1763692,-1.1161021 C 10.003968,7.7214133 9.9997992,7.4556023 9.8209488,7.2837058 L 8.7378021,6.1799617 C 8.5589308,6.0080655 8.2908053,6.0121998 8.1174125,6.1895273 l -1.2244445,1.1602932 -3.3062149,0 L 2.4586897,6.1102927 C 2.2798156,5.9383992 2.0116931,5.942531 1.8383011,6.1198543 L 0.78241883,7.1615042 c -0.17339007,0.1773304 -0.16922345,0.4431379 0.009687,0.6150339 l 1.18224387,1.3126067 0.062047,3.2928722 -1.21113748,1.1161 C 0.6518681,13.675448 0.53511359,13.823753 0.71402128,13.995649 l 1.29999542,1.181288 c 0.1788885,0.17188 0.4469962,0.167762 0.6203886,-0.0096 l 1.0982553,-1.189701 3.2421186,0 1.0693604,1.213596 c 0.1788882,0.171879 0.4469954,0.167763 0.6203873,-0.0096 L 9.7766521,14.196173 Z M 6.2515158,11.710244 C 5.7477213,12.099719 4.8801858,12.260845 4.27177,11.649099 3.6633537,11.037354 3.8361327,10.249789 4.2716295,9.7456814 4.7071266,9.2415733 5.6887876,9.0537263 6.3185715,9.5595783 6.9483555,10.065431 6.7553107,11.320769 6.2515158,11.710244 Z" id="path4562" style="display:block;overflow:visible;visibility:visible;opacity:0.3;fill:none;fill-opacity:1;fill-rule:nonzero;stroke:#000000;stroke-width:1.33333337;stroke-linecap:butt;stroke-linejoin:round;stroke-miterlimit:4;stroke-dasharray:none;stroke-dashoffset:0;stroke-opacity:1;marker:none;enable-background:accumulate" />
      </g>
    </g>
  </g>
</svg>