<?xml version="1.0" encoding="UTF-8" standalone="no"?>
<!DOCTYPE svg PUBLIC "-//W3C//DTD SVG 1.1//EN" "http://www.w3.org/Graphics/SVG/1.1/DTD/svg11.dtd">
<svg version="1.1" xmlns="http://www.w3.org/2000/svg" xmlns:xlink="http://www.w3.org/1999/xlink" preserveAspectRatio="xMidYMid meet" viewBox="0 0 640 640" width="640" height="640"><defs><path d="M106.67 546.67C77.33 546.67 53.33 522.67 53.33 493.33C53.33 458.67 53.33 181.33 53.33 146.67C53.33 117.33 77.33 93.33 106.67 93.33C149.33 93.33 490.67 93.33 533.33 93.33C562.67 93.33 586.67 117.33 586.67 146.67C586.67 181.33 586.67 458.67 586.67 493.33C586.67 522.67 562.67 546.67 533.33 546.67C448 546.67 149.33 546.67 106.67 546.67Z" id="a48pRca4Cq"></path><path d="M466.67 173.33C444.58 173.33 426.67 191.24 426.67 213.33C426.67 235.42 444.58 253.33 466.67 253.33C488.76 253.33 506.67 235.42 506.67 213.33C506.67 191.24 488.76 173.33 466.67 173.33Z" id="m6yImTF62L"></path><path d="M120 426.67L413.33 426.67L266.67 213.33L120 426.67Z" id="a5vK1rPRr"></path><path d="M306.67 426.67L520 426.67L413.33 293.33L306.67 426.67Z" id="c9GfoDVXLl"></path><path d="M0 0L24 0L24 24L0 24L0 0Z" id="g2EUl8CwvU"></path><path d="M543.71 375.99L543.91 376.01L544.1 376.03L544.29 376.06L544.48 376.1L544.67 376.15L544.85 376.2L545.03 376.25L545.21 376.32L545.39 376.38L545.56 376.46L545.73 376.54L545.89 376.63L546.06 376.72L546.22 376.82L546.37 376.92L546.52 377.03L546.67 377.14L546.81 377.26L546.95 377.38L547.08 377.51L547.21 377.64L547.33 377.77L547.45 377.91L547.56 378.06L547.67 378.21L547.78 378.36L547.87 378.52L547.97 378.68L548.05 378.84L548.13 379.01L548.21 379.18L548.27 379.35L548.34 379.53L548.39 379.71L548.44 379.89L548.48 380.08L548.51 380.26L548.54 380.46L552.6 408.72L553.08 408.92L553.57 409.13L554.05 409.34L554.53 409.55L555.01 409.76L555.49 409.98L555.96 410.2L556.44 410.42L556.91 410.65L557.38 410.88L557.84 411.11L558.31 411.35L558.77 411.59L559.24 411.83L559.7 412.08L560.15 412.33L560.61 412.58L561.07 412.83L561.52 413.09L561.97 413.35L562.42 413.61L562.87 413.88L563.31 414.15L563.75 414.42L564.2 414.7L564.64 414.97L565.08 415.26L565.51 415.54L565.95 415.83L566.38 416.12L566.81 416.41L567.24 416.71L567.67 417L568.1 417.31L568.52 417.61L568.95 417.92L569.37 418.23L569.79 418.54L570.21 418.86L570.62 419.18L597.18 408.51L597.36 408.45L597.54 408.39L597.72 408.35L597.9 408.3L598.08 408.27L598.27 408.24L598.45 408.22L598.64 408.2L598.82 408.19L599.01 408.19L599.19 408.19L599.38 408.2L599.57 408.21L599.75 408.23L599.93 408.26L600.12 408.29L600.3 408.33L600.48 408.37L600.66 408.43L600.84 408.48L601.01 408.55L601.18 408.61L601.35 408.69L601.52 408.77L601.69 408.86L601.85 408.95L602.01 409.05L602.16 409.15L602.31 409.26L602.46 409.38L602.61 409.5L602.75 409.63L602.88 409.76L603.01 409.9L603.14 410.05L603.26 410.2L603.37 410.35L603.49 410.51L603.59 410.68L603.69 410.86L625.02 447.76L625.11 447.94L625.2 448.12L625.28 448.3L625.35 448.48L625.42 448.66L625.48 448.85L625.53 449.03L625.58 449.22L625.61 449.41L625.65 449.59L625.67 449.78L625.69 449.97L625.71 450.16L625.71 450.34L625.71 450.53L625.71 450.72L625.7 450.9L625.68 451.09L625.65 451.27L625.62 451.46L625.58 451.64L625.54 451.82L625.49 451.99L625.44 452.17L625.38 452.34L625.31 452.52L625.23 452.69L625.15 452.85L625.07 453.02L624.98 453.18L624.88 453.34L624.78 453.49L624.67 453.64L624.55 453.79L624.43 453.93L624.3 454.07L624.17 454.21L624.03 454.34L623.89 454.47L623.74 454.59L601.24 472.19L601.27 472.44L601.3 472.7L601.33 472.96L601.36 473.21L601.39 473.47L601.42 473.73L601.45 473.98L601.48 474.24L601.5 474.5L601.53 474.75L601.56 475.01L601.58 475.27L601.61 475.52L601.64 475.78L601.66 476.04L601.68 476.3L601.71 476.56L601.73 476.82L601.75 477.08L601.77 477.34L601.79 477.6L601.81 477.86L601.83 478.12L601.84 478.38L601.86 478.64L601.87 478.9L601.89 479.17L601.9 479.43L601.91 479.69L601.93 479.96L601.94 480.22L601.95 480.49L601.95 480.76L601.96 481.02L601.97 481.29L601.97 481.56L601.98 481.83L601.98 482.1L601.98 482.37L601.98 482.64L601.98 482.83L601.98 483.01L601.98 483.2L601.97 483.4L601.97 483.6L601.97 483.8L601.96 484.01L601.95 484.22L601.94 484.44L601.94 484.66L601.93 484.88L601.91 485.11L601.9 485.34L601.89 485.57L601.88 485.81L601.86 486.06L601.85 486.3L601.83 486.55L601.81 486.81L601.8 487.07L601.78 487.33L601.76 487.6L601.74 487.87L601.71 488.15L601.69 488.43L601.67 488.71L601.64 489L601.62 489.29L601.59 489.58L601.56 489.88L601.53 490.19L601.5 490.49L601.47 490.8L601.44 491.12L601.41 491.44L601.38 491.76L601.34 492.09L601.31 492.42L601.27 492.76L601.24 493.1L623.74 510.7L623.89 510.82L624.03 510.94L624.17 511.08L624.3 511.21L624.43 511.35L624.55 511.5L624.67 511.64L624.78 511.79L624.88 511.95L624.98 512.11L625.07 512.27L625.15 512.43L625.23 512.6L625.31 512.77L625.38 512.94L625.44 513.11L625.49 513.29L625.54 513.47L625.58 513.65L625.62 513.83L625.65 514.01L625.68 514.2L625.7 514.38L625.71 514.57L625.71 514.75L625.71 514.94L625.71 515.13L625.69 515.32L625.67 515.5L625.65 515.69L625.61 515.88L625.58 516.06L625.53 516.25L625.48 516.44L625.42 516.62L625.35 516.8L625.28 516.99L625.2 517.17L625.11 517.35L625.02 517.52L603.69 554.43L603.59 554.6L603.49 554.77L603.38 554.93L603.26 555.09L603.14 555.24L603.02 555.39L602.89 555.53L602.76 555.67L602.62 555.8L602.48 555.92L602.33 556.04L602.18 556.15L602.03 556.26L601.87 556.36L601.71 556.46L601.55 556.55L601.39 556.63L601.22 556.71L601.05 556.78L600.88 556.84L600.7 556.9L600.52 556.95L600.34 557L600.16 557.04L599.98 557.07L599.8 557.1L599.61 557.12L599.43 557.14L599.24 557.14L599.05 557.14L598.87 557.14L598.68 557.13L598.49 557.11L598.3 557.08L598.11 557.05L597.93 557.01L597.74 556.96L597.55 556.91L597.37 556.84L597.18 556.78L570.62 546.11L570.21 546.42L569.79 546.73L569.37 547.04L568.95 547.34L568.52 547.64L568.1 547.94L567.67 548.24L567.24 548.54L566.81 548.83L566.38 549.12L565.95 549.41L565.51 549.7L565.08 549.98L564.64 550.26L564.2 550.54L563.75 550.82L563.31 551.09L562.87 551.36L562.42 551.63L561.97 551.9L561.52 552.16L561.07 552.42L560.61 552.67L560.15 552.93L559.7 553.18L559.24 553.43L558.77 553.67L558.31 553.91L557.84 554.15L557.38 554.39L556.91 554.62L556.44 554.85L555.96 555.08L555.49 555.3L555.01 555.52L554.53 555.73L554.05 555.95L553.57 556.16L553.08 556.36L552.6 556.56L548.54 584.83L548.51 585.02L548.48 585.21L548.44 585.39L548.39 585.58L548.34 585.76L548.27 585.93L548.21 586.11L548.13 586.28L548.05 586.45L547.97 586.61L547.87 586.77L547.78 586.93L547.67 587.08L547.56 587.23L547.45 587.37L547.33 587.51L547.21 587.65L547.08 587.78L546.95 587.91L546.81 588.03L546.67 588.15L546.52 588.26L546.37 588.37L546.22 588.47L546.06 588.57L545.89 588.66L545.73 588.74L545.56 588.83L545.39 588.9L545.21 588.97L545.03 589.03L544.85 589.09L544.67 589.14L544.48 589.18L544.29 589.22L544.1 589.25L543.91 589.28L543.71 589.29L543.51 589.31L543.32 589.31L500.65 589.31L500.45 589.31L500.25 589.29L500.06 589.28L499.86 589.25L499.67 589.22L499.48 589.18L499.3 589.14L499.11 589.09L498.93 589.03L498.75 588.97L498.58 588.9L498.4 588.83L498.24 588.74L498.07 588.66L497.91 588.57L497.75 588.47L497.59 588.37L497.44 588.26L497.3 588.15L497.16 588.03L497.02 587.91L496.88 587.78L496.76 587.65L496.63 587.51L496.51 587.37L496.4 587.23L496.29 587.08L496.19 586.93L496.09 586.77L496 586.61L495.91 586.45L495.83 586.28L495.76 586.11L495.69 585.93L495.63 585.76L495.57 585.58L495.53 585.39L495.48 585.21L495.45 585.02L495.42 584.83L491.37 556.56L490.88 556.36L490.4 556.16L489.91 555.95L489.43 555.74L488.95 555.52L488.48 555.31L488 555.08L487.53 554.86L487.06 554.63L486.59 554.4L486.12 554.17L485.65 553.93L485.19 553.7L484.73 553.45L484.27 553.21L483.81 552.96L483.35 552.71L482.9 552.45L482.45 552.2L482 551.94L481.55 551.67L481.1 551.41L480.65 551.14L480.21 550.86L479.77 550.59L479.33 550.31L478.89 550.03L478.45 549.74L478.02 549.46L477.58 549.17L477.15 548.87L476.72 548.58L476.29 548.28L475.87 547.98L475.44 547.67L475.02 547.37L474.6 547.06L474.18 546.74L473.76 546.43L473.34 546.11L446.78 556.78L446.61 556.84L446.43 556.89L446.25 556.94L446.06 556.98L445.88 557.02L445.7 557.05L445.51 557.07L445.33 557.08L445.14 557.09L444.96 557.1L444.77 557.1L444.58 557.09L444.4 557.07L444.21 557.05L444.03 557.03L443.85 556.99L443.66 556.96L443.48 556.91L443.31 556.86L443.13 556.8L442.95 556.74L442.78 556.67L442.61 556.6L442.44 556.51L442.28 556.43L442.12 556.33L441.96 556.24L441.8 556.13L441.65 556.02L441.5 555.91L441.36 555.78L441.22 555.66L441.08 555.52L440.95 555.38L440.83 555.24L440.71 555.09L440.59 554.93L440.48 554.77L440.37 554.6L440.28 554.43L418.94 517.52L418.85 517.35L418.76 517.17L418.68 516.99L418.61 516.8L418.55 516.62L418.49 516.44L418.43 516.25L418.39 516.06L418.35 515.88L418.32 515.69L418.29 515.5L418.27 515.32L418.26 515.13L418.25 514.94L418.25 514.75L418.26 514.57L418.27 514.38L418.29 514.2L418.31 514.01L418.34 513.83L418.38 513.65L418.42 513.47L418.47 513.29L418.53 513.11L418.59 512.94L418.66 512.77L418.73 512.6L418.81 512.43L418.9 512.27L418.99 512.11L419.08 511.95L419.19 511.79L419.3 511.64L419.41 511.5L419.53 511.35L419.66 511.21L419.79 511.08L419.93 510.94L420.07 510.82L420.22 510.7L442.73 493.1L442.7 492.84L442.67 492.58L442.63 492.33L442.6 492.07L442.57 491.81L442.54 491.55L442.52 491.29L442.49 491.04L442.46 490.78L442.43 490.52L442.41 490.26L442.38 490L442.35 489.74L442.33 489.48L442.31 489.22L442.28 488.96L442.26 488.69L442.24 488.43L442.22 488.17L442.2 487.91L442.18 487.65L442.16 487.38L442.14 487.12L442.12 486.86L442.11 486.6L442.09 486.33L442.08 486.07L442.06 485.81L442.05 485.54L442.04 485.28L442.03 485.02L442.02 484.75L442.01 484.49L442 484.23L442 483.96L441.99 483.7L441.99 483.43L441.98 483.17L441.98 482.91L441.98 482.64L441.98 482.38L441.98 482.11L441.99 481.85L441.99 481.59L442 481.32L442 481.06L442.01 480.79L442.02 480.53L442.03 480.27L442.04 480L442.05 479.74L442.06 479.48L442.08 479.21L442.09 478.95L442.11 478.69L442.12 478.43L442.14 478.16L442.16 477.9L442.18 477.64L442.2 477.38L442.22 477.11L442.24 476.85L442.26 476.59L442.28 476.33L442.31 476.07L442.33 475.81L442.35 475.55L442.38 475.29L442.41 475.03L442.43 474.77L442.46 474.51L442.49 474.25L442.52 473.99L442.54 473.73L442.57 473.47L442.6 473.22L442.63 472.96L442.67 472.7L442.7 472.45L442.73 472.19L420.22 454.59L420.07 454.47L419.93 454.34L419.79 454.21L419.66 454.07L419.53 453.93L419.41 453.79L419.29 453.64L419.18 453.49L419.07 453.34L418.97 453.18L418.88 453.02L418.79 452.85L418.71 452.69L418.63 452.52L418.56 452.34L418.5 452.17L418.44 451.99L418.39 451.82L418.34 451.64L418.3 451.46L418.27 451.27L418.24 451.09L418.22 450.9L418.21 450.72L418.2 450.53L418.2 450.34L418.21 450.16L418.22 449.97L418.24 449.78L418.27 449.59L418.31 449.41L418.35 449.22L418.4 449.03L418.45 448.85L418.52 448.66L418.59 448.48L418.66 448.3L418.75 448.12L418.84 447.94L418.94 447.76L440.28 410.86L440.37 410.68L440.48 410.51L440.59 410.35L440.7 410.19L440.82 410.04L440.95 409.9L441.07 409.75L441.21 409.62L441.35 409.49L441.49 409.36L441.63 409.25L441.78 409.13L441.93 409.03L442.09 408.92L442.25 408.83L442.41 408.74L442.58 408.66L442.75 408.58L442.92 408.51L443.09 408.44L443.26 408.38L443.44 408.33L443.62 408.28L443.8 408.24L443.98 408.21L444.17 408.18L444.35 408.16L444.54 408.15L444.72 408.14L444.91 408.14L445.1 408.15L445.29 408.16L445.47 408.18L445.66 408.2L445.85 408.24L446.04 408.28L446.23 408.33L446.41 408.38L446.6 408.44L446.78 408.51L473.34 419.18L473.76 418.86L474.18 418.56L474.6 418.25L475.02 417.94L475.44 417.64L475.87 417.34L476.29 417.04L476.72 416.75L477.15 416.45L477.58 416.16L478.02 415.87L478.45 415.59L478.89 415.3L479.33 415.02L479.77 414.74L480.21 414.47L480.65 414.19L481.1 413.92L481.55 413.65L482 413.39L482.45 413.13L482.9 412.87L483.35 412.61L483.81 412.36L484.27 412.1L484.73 411.86L485.19 411.61L485.65 411.37L486.12 411.13L486.59 410.9L487.06 410.66L487.53 410.43L488 410.21L488.48 409.99L488.95 409.77L489.43 409.55L489.91 409.34L490.4 409.13L490.88 408.92L491.37 408.72L495.42 380.46L495.45 380.26L495.48 380.08L495.53 379.89L495.57 379.71L495.63 379.53L495.69 379.35L495.76 379.18L495.83 379.01L495.91 378.84L496 378.68L496.09 378.52L496.19 378.36L496.29 378.21L496.4 378.06L496.51 377.91L496.63 377.77L496.76 377.64L496.88 377.51L497.02 377.38L497.16 377.26L497.3 377.14L497.44 377.03L497.59 376.92L497.75 376.82L497.91 376.72L498.07 376.63L498.24 376.54L498.4 376.46L498.58 376.38L498.75 376.32L498.93 376.25L499.11 376.2L499.3 376.15L499.48 376.1L499.67 376.06L499.86 376.03L500.06 376.01L500.25 375.99L500.45 375.98L500.65 375.98L543.32 375.98L543.51 375.98L543.71 375.99ZM518.92 445.43L517.42 445.59L515.93 445.8L514.47 446.07L513.02 446.4L511.6 446.78L510.19 447.22L508.82 447.71L507.46 448.25L506.14 448.84L504.84 449.48L503.57 450.17L502.33 450.91L501.12 451.69L499.95 452.52L498.81 453.39L497.7 454.31L496.63 455.26L495.6 456.26L494.6 457.29L493.65 458.36L492.73 459.47L491.86 460.61L491.03 461.78L490.25 462.99L489.51 464.23L488.82 465.5L488.18 466.8L487.59 468.12L487.05 469.48L486.56 470.85L486.12 472.26L485.74 473.68L485.41 475.13L485.14 476.59L484.93 478.08L484.77 479.58L484.68 481.11L484.65 482.64L484.68 484.18L484.77 485.7L484.93 487.2L485.14 488.69L485.41 490.16L485.74 491.6L486.12 493.03L486.56 494.43L487.05 495.81L487.59 497.16L488.18 498.49L488.82 499.78L489.51 501.05L490.25 502.29L491.03 503.5L491.86 504.68L492.73 505.82L493.65 506.93L494.6 508L495.6 509.03L496.63 510.02L497.7 510.98L498.81 511.89L499.95 512.76L501.12 513.59L502.33 514.37L503.57 515.11L504.84 515.8L506.14 516.44L507.46 517.04L508.82 517.58L510.19 518.07L511.6 518.51L513.02 518.89L514.47 519.22L515.93 519.49L517.42 519.7L518.92 519.85L520.45 519.94L521.98 519.98L523.52 519.94L525.04 519.85L526.54 519.7L528.03 519.49L529.5 519.22L530.94 518.89L532.37 518.51L533.77 518.07L535.15 517.58L536.5 517.04L537.83 516.44L539.12 515.8L540.39 515.11L541.63 514.37L542.84 513.59L544.02 512.76L545.16 511.89L546.27 510.98L547.34 510.02L548.37 509.03L549.36 508L550.32 506.93L551.23 505.82L552.1 504.68L552.93 503.5L553.71 502.29L554.45 501.05L555.14 499.78L555.78 498.49L556.38 497.16L556.92 495.81L557.41 494.43L557.85 493.03L558.23 491.6L558.56 490.16L558.83 488.69L559.04 487.2L559.19 485.7L559.28 484.18L559.32 482.64L559.28 481.11L559.19 479.58L559.04 478.08L558.83 476.59L558.56 475.13L558.23 473.68L557.85 472.26L557.41 470.85L556.92 469.48L556.38 468.12L555.78 466.8L555.14 465.5L554.45 464.23L553.71 462.99L552.93 461.78L552.1 460.61L551.23 459.47L550.32 458.36L549.36 457.29L548.37 456.26L547.34 455.26L546.27 454.31L545.16 453.39L544.02 452.52L542.84 451.69L541.63 450.91L540.39 450.17L539.12 449.48L537.83 448.84L536.5 448.25L535.15 447.71L533.77 447.22L532.37 446.78L530.94 446.4L529.5 446.07L528.03 445.8L526.54 445.59L525.04 445.43L523.52 445.34L521.98 445.31L520.45 445.34L518.92 445.43Z" id="b4VQLTqWR2"></path></defs><g><g><g><use xlink:href="#a48pRca4Cq" opacity="1" fill="#8cbcd6" fill-opacity="1"></use><g><use xlink:href="#a48pRca4Cq" opacity="1" fill-opacity="0" stroke="#000000" stroke-width="1" stroke-opacity="0"></use></g></g><g><use xlink:href="#m6yImTF62L" opacity="1" fill="#b3ddf5" fill-opacity="1"></use><g><use xlink:href="#m6yImTF62L" opacity="1" fill-opacity="0" stroke="#000000" stroke-width="1" stroke-opacity="0"></use></g></g><g><use xlink:href="#a5vK1rPRr" opacity="1" fill="#9ac9e3" fill-opacity="1"></use><g><use xlink:href="#a5vK1rPRr" opacity="1" fill-opacity="0" stroke="#000000" stroke-width="1" stroke-opacity="0"></use></g></g><g><use xlink:href="#c9GfoDVXLl" opacity="1" fill="#b3ddf5" fill-opacity="1"></use><g><use xlink:href="#c9GfoDVXLl" opacity="1" fill-opacity="0" stroke="#000000" stroke-width="1" stroke-opacity="0"></use></g></g><g><use xlink:href="#g2EUl8CwvU" opacity="1" fill="#000000" fill-opacity="0"></use><g><use xlink:href="#g2EUl8CwvU" opacity="1" fill-opacity="0" stroke="#000000" stroke-width="1" stroke-opacity="0"></use></g></g><g><use xlink:href="#b4VQLTqWR2" opacity="1" fill="#688491" fill-opacity="1"></use><g><use xlink:href="#b4VQLTqWR2" opacity="1" fill-opacity="0" stroke="#000000" stroke-width="1" stroke-opacity="0"></use></g></g></g></g></svg>