<!-- <svg fill="#687ddb" height="24" viewBox="0 0 24 24" width="24" xmlns="http://www.w3.org/2000/svg">
    <path d="M0 0h24v24H0z" fill="none"/>
    <path d="M9 16h6v-6h4l-7-7-7 7h4zm-4 2h14v2H5z"/>
</svg> -->

<svg fill="#687ddb" xmlns="http://www.w3.org/2000/svg" xmlns:xlink="http://www.w3.org/1999/xlink" version="1.1" x="0px" y="0px" viewBox="0 0 100 100" enable-background="new 0 0 100 100" xml:space="preserve"><path fill="#687ddb" d="M22.028,74H40c1.104,0,2-0.896,2-2s-0.896-2-2-2H22.028c-6.874,0-12.837-5.605-13.023-12.24  c-0.094-3.372,1.118-6.56,3.414-8.977c2.362-2.487,5.591-3.902,9.091-3.984c0.568-0.013,1.104-0.268,1.474-0.701  c0.369-0.432,0.537-1.001,0.462-1.564c-0.133-0.989-0.2-1.966-0.2-2.904C23.245,27.703,32.948,18,44.874,18  c9.857,0,18.468,6.655,20.938,16.185c0.275,1.062,1.354,1.704,2.421,1.438c1.901-0.476,3.862-0.63,5.825-0.463  c8.898,0.76,15.828,7.977,16.119,16.789c0.158,4.773-1.568,9.275-4.86,12.677C81.963,68.091,77.421,70,72.528,70H60  c-1.104,0-2,0.896-2,2s0.896,2,2,2h12.528c5.987,0,11.549-2.342,15.664-6.594c4.051-4.188,6.176-9.724,5.983-15.59  c-0.357-10.836-8.859-19.71-19.776-20.642c-1.764-0.152-3.525-0.088-5.258,0.186C65.637,21.048,55.916,14,44.874,14  c-14.132,0-25.629,11.497-25.629,25.629c0,0.444,0.013,0.896,0.038,1.351c-3.743,0.548-7.153,2.299-9.765,5.049  c-3.034,3.194-4.636,7.4-4.512,11.844C5.251,66.614,13.047,74,22.028,74z"/><path fill="#687ddb" d="M50,95c1.104,0,2-0.896,2-2V49.117l10.699,10.699c0.391,0.391,0.902,0.586,1.415,0.586  c0.512,0,1.023-0.195,1.414-0.586c0.781-0.781,0.781-2.047,0-2.829L51.496,42.955c-0.781-0.78-2.048-0.78-2.829,0L34.636,56.987  c-0.781,0.781-0.781,2.047,0,2.829c0.781,0.781,2.047,0.781,2.829,0L48,49.28V93C48,94.104,48.896,95,50,95z"/></svg>